<svg width="350" height="258" viewBox="0 0 350 258" fill="none" xmlns="http://www.w3.org/2000/svg">
<path d="M18.108 126.837C17.412 126.837 16.884 126.657 16.524 126.297C16.188 125.937 16.02 125.337 16.02 124.497V122.481H7.488V131.913H15.048C15.36 131.913 15.6 132.021 15.768 132.237C15.96 132.429 16.056 132.657 16.056 132.921C16.056 133.161 15.948 133.389 15.732 133.605C15.516 133.797 15.288 133.893 15.048 133.893H7.488V144.189H16.56V142.173C16.56 141.333 16.728 140.733 17.064 140.373C17.424 140.013 17.952 139.833 18.648 139.833C19.176 139.833 19.56 139.977 19.8 140.265C20.064 140.553 20.196 141.009 20.196 141.633V144.765C20.196 145.269 20.016 145.617 19.656 145.809C19.32 146.001 18.78 146.097 18.036 146.097H5.256C4.704 146.097 4.284 145.953 3.996 145.665C3.732 145.377 3.6 144.921 3.6 144.297V122.373C3.6 121.749 3.732 121.293 3.996 121.005C4.284 120.717 4.704 120.573 5.256 120.573H17.496C18.24 120.573 18.78 120.669 19.116 120.861C19.476 121.053 19.656 121.401 19.656 121.905V125.037C19.656 125.661 19.524 126.117 19.26 126.405C19.02 126.693 18.636 126.837 18.108 126.837ZM25.3291 144.189C25.0411 144.957 24.7051 145.473 24.3211 145.737C23.9611 145.977 23.5651 146.097 23.1331 146.097C22.7971 146.097 22.5451 146.013 22.3771 145.845C22.2331 145.653 22.1611 145.413 22.1611 145.125C22.1611 144.837 22.2211 144.537 22.3411 144.225L30.8011 121.437C30.8971 121.173 31.1251 120.969 31.4851 120.825C31.8691 120.657 32.3011 120.573 32.7811 120.573C33.3091 120.573 33.7771 120.657 34.1851 120.825C34.6171 120.993 34.8811 121.233 34.9771 121.545L43.2211 144.369C43.2691 144.609 43.2931 144.789 43.2931 144.909C43.2931 145.245 43.1731 145.533 42.9331 145.773C42.7171 145.989 42.3691 146.097 41.8891 146.097C41.3851 146.097 40.8691 145.965 40.3411 145.701C39.8371 145.437 39.4531 144.933 39.1891 144.189L37.2811 139.257H27.1651L25.3291 144.189ZM32.3851 124.821H32.1691L27.7411 137.385H36.7411L32.3851 124.821ZM61.1918 127.125C60.4958 127.125 59.9678 126.957 59.6078 126.621C59.2718 126.261 59.1038 125.685 59.1038 124.893V123.057C59.0078 123.033 58.8038 122.973 58.4918 122.877C57.3878 122.565 56.1758 122.409 54.8558 122.409C53.7998 122.409 52.9118 122.637 52.1918 123.093C51.4718 123.525 50.9318 124.089 50.5718 124.785C50.2358 125.457 50.0678 126.153 50.0678 126.873C50.0678 127.689 50.2118 128.361 50.4998 128.889C50.8118 129.417 51.3038 129.873 51.9758 130.257C52.6478 130.641 53.6318 131.073 54.9278 131.553C57.4958 132.465 59.3798 133.209 60.5798 133.785C61.7798 134.361 62.7158 135.069 63.3878 135.909C64.0598 136.725 64.3958 137.793 64.3958 139.113C64.3958 140.457 63.9998 141.657 63.2078 142.713C62.4398 143.769 61.2878 144.597 59.7518 145.197C58.2398 145.797 56.4278 146.097 54.3158 146.097C53.2358 146.097 52.0478 145.989 50.7518 145.773C49.4798 145.533 48.4118 145.245 47.5478 144.909C46.9958 144.669 46.6238 144.453 46.4318 144.261C46.2398 144.045 46.1438 143.685 46.1438 143.181V141.021C46.1438 139.869 46.6598 139.293 47.6918 139.293C48.3878 139.293 48.9038 139.473 49.2398 139.833C49.5998 140.169 49.7798 140.745 49.7798 141.561V143.505C51.2918 144.009 52.7558 144.261 54.1718 144.261C55.4678 144.261 56.5838 144.033 57.5198 143.577C58.4558 143.121 59.1638 142.533 59.6438 141.813C60.1238 141.093 60.3638 140.325 60.3638 139.509C60.3638 138.717 60.1478 138.045 59.7158 137.493C59.3078 136.941 58.6838 136.449 57.8438 136.017C57.0038 135.585 55.8278 135.093 54.3158 134.541C52.2758 133.773 50.7038 133.125 49.5998 132.597C48.5198 132.045 47.6558 131.337 47.0078 130.473C46.3598 129.585 46.0358 128.457 46.0358 127.089C46.0358 125.121 46.7918 123.549 48.3038 122.373C49.8158 121.173 51.9158 120.573 54.6038 120.573C55.8518 120.573 56.9918 120.669 58.0238 120.861C59.0558 121.029 60.1358 121.281 61.2638 121.617C61.8398 121.809 62.2238 122.013 62.4158 122.229C62.6318 122.445 62.7398 122.805 62.7398 123.309V125.397C62.7398 126.549 62.2238 127.125 61.1918 127.125ZM74.0543 146.097C72.9263 146.097 72.3623 145.497 72.3623 144.297V136.449L65.2703 122.733C65.1263 122.397 65.0543 122.097 65.0543 121.833C65.0543 121.473 65.1743 121.173 65.4143 120.933C65.6543 120.693 65.9663 120.573 66.3503 120.573C66.9743 120.573 67.5023 120.705 67.9343 120.969C68.3663 121.233 68.7623 121.725 69.1223 122.445L74.8463 133.749H74.9902L80.3903 122.481C80.9903 121.209 81.7223 120.573 82.5862 120.573C82.9223 120.573 83.1743 120.693 83.3423 120.933C83.5103 121.149 83.5943 121.425 83.5943 121.761C83.5943 122.049 83.5343 122.313 83.4142 122.553L76.2503 136.449V143.937C76.2503 144.777 76.0703 145.353 75.7103 145.665C75.3743 145.953 74.8223 146.097 74.0543 146.097ZM91.5818 143.757C91.5818 144.597 91.4018 145.197 91.0418 145.557C90.6818 145.917 90.1178 146.097 89.3498 146.097C88.7978 146.097 88.3778 145.953 88.0898 145.665C87.8258 145.377 87.6938 144.921 87.6938 144.297V122.373C87.6938 121.749 87.8258 121.293 88.0898 121.005C88.3778 120.717 88.7978 120.573 89.3498 120.573H101.59C102.334 120.573 102.874 120.669 103.21 120.861C103.57 121.053 103.75 121.401 103.75 121.905V124.677C103.75 125.301 103.618 125.757 103.354 126.045C103.114 126.333 102.73 126.477 102.202 126.477C101.506 126.477 100.978 126.297 100.618 125.937C100.282 125.577 100.114 124.977 100.114 124.137V122.481H91.5818V132.093H99.1418C99.8138 132.093 100.15 132.429 100.15 133.101C100.15 133.413 100.054 133.653 99.8618 133.821C99.6938 133.989 99.4538 134.073 99.1418 134.073H91.5818V143.757ZM127.966 133.353C127.966 135.153 127.69 137.001 127.138 138.897C126.61 140.793 125.53 142.473 123.898 143.937C122.266 145.377 119.95 146.097 116.95 146.097C113.95 146.097 111.634 145.377 110.002 143.937C108.394 142.473 107.326 140.793 106.798 138.897C106.27 137.001 106.006 135.153 106.006 133.353C106.006 131.553 106.27 129.705 106.798 127.809C107.326 125.913 108.394 124.233 110.002 122.769C111.634 121.305 113.95 120.573 116.95 120.573C119.95 120.573 122.266 121.305 123.898 122.769C125.53 124.233 126.61 125.925 127.138 127.845C127.69 129.741 127.966 131.577 127.966 133.353ZM123.898 133.353C123.898 130.569 123.43 128.049 122.494 125.793C121.558 123.537 119.71 122.409 116.95 122.409C114.238 122.409 112.414 123.537 111.478 125.793C110.542 128.049 110.074 130.569 110.074 133.353C110.074 136.113 110.542 138.621 111.478 140.877C112.414 143.133 114.238 144.261 116.95 144.261C119.71 144.261 121.558 143.145 122.494 140.913C123.43 138.657 123.898 136.137 123.898 133.353ZM133.467 122.373C133.467 121.725 133.587 121.269 133.827 121.005C134.067 120.717 134.475 120.573 135.051 120.573H141.855C144.615 120.573 146.823 121.089 148.479 122.121C150.135 123.129 150.963 124.929 150.963 127.521C150.963 128.697 150.651 129.777 150.027 130.761C149.427 131.745 148.635 132.549 147.651 133.173C146.691 133.797 145.695 134.193 144.663 134.361L150.639 143.973C150.855 144.285 150.963 144.597 150.963 144.909C150.963 145.269 150.807 145.557 150.495 145.773C150.183 145.989 149.727 146.097 149.127 146.097C148.647 146.097 148.191 145.989 147.759 145.773C147.327 145.557 146.967 145.209 146.679 144.729L140.631 134.613H137.355V143.757C137.355 144.597 137.175 145.197 136.815 145.557C136.455 145.917 135.891 146.097 135.123 146.097C134.571 146.097 134.151 145.953 133.863 145.665C133.599 145.377 133.467 144.921 133.467 144.297V122.373ZM137.355 132.705H141.207C142.695 132.705 144.015 132.273 145.167 131.409C146.319 130.521 146.895 129.153 146.895 127.305C146.895 125.337 146.367 124.041 145.311 123.417C144.255 122.793 142.983 122.481 141.495 122.481H137.355V132.705ZM179.496 146.097C178.056 146.097 177.336 145.173 177.336 143.325V125.901H177.084L169.668 144.765C169.308 145.653 168.804 146.097 168.156 146.097C167.484 146.097 166.968 145.653 166.608 144.765L159.696 125.901H159.444V144.081C159.444 144.777 159.288 145.293 158.976 145.629C158.688 145.941 158.352 146.097 157.968 146.097C157.584 146.097 157.26 145.965 156.996 145.701C156.732 145.437 156.6 145.029 156.6 144.477V122.481C156.6 121.881 156.828 121.413 157.284 121.077C157.74 120.741 158.28 120.573 158.904 120.573C159.432 120.573 159.948 120.717 160.452 121.005C160.98 121.269 161.364 121.701 161.604 122.301L168.516 141.417H168.696L176.22 122.481C176.46 121.809 176.844 121.329 177.372 121.041C177.924 120.729 178.512 120.573 179.136 120.573C179.76 120.573 180.216 120.729 180.504 121.041C180.816 121.353 180.972 121.833 180.972 122.481V144.297C180.972 144.969 180.864 145.437 180.648 145.701C180.432 145.965 180.048 146.097 179.496 146.097ZM191.806 138.213C191.806 140.157 192.37 141.681 193.498 142.785C194.626 143.889 196.186 144.441 198.178 144.441C200.026 144.441 201.49 143.841 202.57 142.641C203.674 141.441 204.226 139.917 204.226 138.069V122.589C204.226 121.893 204.37 121.389 204.658 121.077C204.97 120.741 205.318 120.573 205.702 120.573C206.086 120.573 206.41 120.705 206.674 120.969C206.938 121.233 207.07 121.641 207.07 122.193V136.953C207.07 138.393 206.818 139.845 206.314 141.309C205.81 142.749 204.838 143.997 203.398 145.053C201.982 146.109 200.002 146.637 197.458 146.637C193.666 146.637 191.122 145.665 189.826 143.721C188.554 141.777 187.918 139.557 187.918 137.061V122.373C187.918 121.725 188.038 121.269 188.278 121.005C188.518 120.717 188.926 120.573 189.502 120.573C190.246 120.573 190.81 120.813 191.194 121.293C191.602 121.749 191.806 122.433 191.806 123.345V138.213ZM228.158 139.365C228.686 139.365 229.07 139.509 229.31 139.797C229.574 140.085 229.706 140.541 229.706 141.165V144.945C229.706 145.353 229.526 145.653 229.166 145.845C228.806 146.013 228.266 146.097 227.546 146.097H215.666C215.114 146.097 214.694 145.953 214.406 145.665C214.142 145.377 214.01 144.921 214.01 144.297V122.373C214.01 121.725 214.13 121.269 214.37 121.005C214.61 120.717 215.018 120.573 215.594 120.573C216.338 120.573 216.902 120.813 217.286 121.293C217.694 121.749 217.898 122.433 217.898 123.345V144.189H226.07V141.705C226.07 140.865 226.238 140.265 226.574 139.905C226.934 139.545 227.462 139.365 228.158 139.365ZM234.685 144.189C234.397 144.957 234.061 145.473 233.677 145.737C233.317 145.977 232.921 146.097 232.489 146.097C232.153 146.097 231.901 146.013 231.733 145.845C231.589 145.653 231.517 145.413 231.517 145.125C231.517 144.837 231.577 144.537 231.697 144.225L240.157 121.437C240.253 121.173 240.481 120.969 240.841 120.825C241.225 120.657 241.657 120.573 242.137 120.573C242.665 120.573 243.133 120.657 243.541 120.825C243.973 120.993 244.237 121.233 244.333 121.545L252.577 144.369C252.625 144.609 252.649 144.789 252.649 144.909C252.649 145.245 252.529 145.533 252.289 145.773C252.073 145.989 251.725 146.097 251.245 146.097C250.741 146.097 250.225 145.965 249.697 145.701C249.193 145.437 248.809 144.933 248.545 144.189L246.637 139.257H236.521L234.685 144.189ZM241.741 124.821H241.525L237.097 137.385H246.097L241.741 124.821ZM256.795 122.373C256.795 121.725 256.915 121.269 257.155 121.005C257.395 120.717 257.803 120.573 258.379 120.573H265.183C267.943 120.573 270.151 121.089 271.807 122.121C273.463 123.129 274.291 124.929 274.291 127.521C274.291 128.697 273.979 129.777 273.355 130.761C272.755 131.745 271.963 132.549 270.979 133.173C270.019 133.797 269.023 134.193 267.991 134.361L273.967 143.973C274.183 144.285 274.291 144.597 274.291 144.909C274.291 145.269 274.135 145.557 273.823 145.773C273.511 145.989 273.055 146.097 272.455 146.097C271.975 146.097 271.519 145.989 271.087 145.773C270.655 145.557 270.295 145.209 270.007 144.729L263.959 134.613H260.683V143.757C260.683 144.597 260.503 145.197 260.143 145.557C259.783 145.917 259.219 146.097 258.451 146.097C257.899 146.097 257.479 145.953 257.191 145.665C256.927 145.377 256.795 144.921 256.795 144.297V122.373ZM260.683 132.705H264.535C266.023 132.705 267.343 132.273 268.495 131.409C269.647 130.521 270.223 129.153 270.223 127.305C270.223 125.337 269.695 124.041 268.639 123.417C267.583 122.793 266.311 122.481 264.823 122.481H260.683V132.705Z" fill="white"/>
<line x1="180" y1="24.0966" x2="180" y2="111.097" stroke="white" stroke-width="2"/>
<line x1="179.5" y1="158.097" x2="179.5" y2="245.097" stroke="white"/>
<line x1="180.008" y1="244.097" x2="312.008" y2="245.097" stroke="white" stroke-width="2"/>
<line x1="180" y1="158.097" x2="180" y2="245.097" stroke="white" stroke-width="2"/>
<path d="M179 24.5965L261 24.5965" stroke="white" stroke-width="2"/>
<line x1="309" y1="67.0909" x2="310" y2="245.091" stroke="white" stroke-width="2"/>
<path d="M262 66.002L262 25.7282L307.366 66.0913L262 66.002Z" stroke="white" stroke-width="2"/>
</svg>
