<svg width="350" height="256" viewBox="0 0 350 256" fill="none" xmlns="http://www.w3.org/2000/svg">
<path d="M18.108 125.74C17.412 125.74 16.884 125.56 16.524 125.2C16.188 124.84 16.02 124.24 16.02 123.4V121.384H7.488V130.816H15.048C15.36 130.816 15.6 130.924 15.768 131.14C15.96 131.332 16.056 131.56 16.056 131.824C16.056 132.064 15.948 132.292 15.732 132.508C15.516 132.7 15.288 132.796 15.048 132.796H7.488V143.092H16.56V141.076C16.56 140.236 16.728 139.636 17.064 139.276C17.424 138.916 17.952 138.736 18.648 138.736C19.176 138.736 19.56 138.88 19.8 139.168C20.064 139.456 20.196 139.912 20.196 140.536V143.668C20.196 144.172 20.016 144.52 19.656 144.712C19.32 144.904 18.78 145 18.036 145H5.256C4.704 145 4.284 144.856 3.996 144.568C3.732 144.28 3.6 143.824 3.6 143.2V121.276C3.6 120.652 3.732 120.196 3.996 119.908C4.284 119.62 4.704 119.476 5.256 119.476H17.496C18.24 119.476 18.78 119.572 19.116 119.764C19.476 119.956 19.656 120.304 19.656 120.808V123.94C19.656 124.564 19.524 125.02 19.26 125.308C19.02 125.596 18.636 125.74 18.108 125.74ZM25.3291 143.092C25.0411 143.86 24.7051 144.376 24.3211 144.64C23.9611 144.88 23.5651 145 23.1331 145C22.7971 145 22.5451 144.916 22.3771 144.748C22.2331 144.556 22.1611 144.316 22.1611 144.028C22.1611 143.74 22.2211 143.44 22.3411 143.128L30.8011 120.34C30.8971 120.076 31.1251 119.872 31.4851 119.728C31.8691 119.56 32.3011 119.476 32.7811 119.476C33.3091 119.476 33.7771 119.56 34.1851 119.728C34.6171 119.896 34.8811 120.136 34.9771 120.448L43.2211 143.272C43.2691 143.512 43.2931 143.692 43.2931 143.812C43.2931 144.148 43.1731 144.436 42.9331 144.676C42.7171 144.892 42.3691 145 41.8891 145C41.3851 145 40.8691 144.868 40.3411 144.604C39.8371 144.34 39.4531 143.836 39.1891 143.092L37.2811 138.16H27.1651L25.3291 143.092ZM32.3851 123.724H32.1691L27.7411 136.288H36.7411L32.3851 123.724ZM61.1918 126.028C60.4958 126.028 59.9678 125.86 59.6078 125.524C59.2718 125.164 59.1038 124.588 59.1038 123.796V121.96C59.0078 121.936 58.8038 121.876 58.4918 121.78C57.3878 121.468 56.1758 121.312 54.8558 121.312C53.7998 121.312 52.9118 121.54 52.1918 121.996C51.4718 122.428 50.9318 122.992 50.5718 123.688C50.2358 124.36 50.0678 125.056 50.0678 125.776C50.0678 126.592 50.2118 127.264 50.4998 127.792C50.8118 128.32 51.3038 128.776 51.9758 129.16C52.6478 129.544 53.6318 129.976 54.9278 130.456C57.4958 131.368 59.3798 132.112 60.5798 132.688C61.7798 133.264 62.7158 133.972 63.3878 134.812C64.0598 135.628 64.3958 136.696 64.3958 138.016C64.3958 139.36 63.9998 140.56 63.2078 141.616C62.4398 142.672 61.2878 143.5 59.7518 144.1C58.2398 144.7 56.4278 145 54.3158 145C53.2358 145 52.0478 144.892 50.7518 144.676C49.4798 144.436 48.4118 144.148 47.5478 143.812C46.9958 143.572 46.6238 143.356 46.4318 143.164C46.2398 142.948 46.1438 142.588 46.1438 142.084V139.924C46.1438 138.772 46.6598 138.196 47.6918 138.196C48.3878 138.196 48.9038 138.376 49.2398 138.736C49.5998 139.072 49.7798 139.648 49.7798 140.464V142.408C51.2918 142.912 52.7558 143.164 54.1718 143.164C55.4678 143.164 56.5838 142.936 57.5198 142.48C58.4558 142.024 59.1638 141.436 59.6438 140.716C60.1238 139.996 60.3638 139.228 60.3638 138.412C60.3638 137.62 60.1478 136.948 59.7158 136.396C59.3078 135.844 58.6838 135.352 57.8438 134.92C57.0038 134.488 55.8278 133.996 54.3158 133.444C52.2758 132.676 50.7038 132.028 49.5998 131.5C48.5198 130.948 47.6558 130.24 47.0078 129.376C46.3598 128.488 46.0358 127.36 46.0358 125.992C46.0358 124.024 46.7918 122.452 48.3038 121.276C49.8158 120.076 51.9158 119.476 54.6038 119.476C55.8518 119.476 56.9918 119.572 58.0238 119.764C59.0558 119.932 60.1358 120.184 61.2638 120.52C61.8398 120.712 62.2238 120.916 62.4158 121.132C62.6318 121.348 62.7398 121.708 62.7398 122.212V124.3C62.7398 125.452 62.2238 126.028 61.1918 126.028ZM74.0543 145C72.9263 145 72.3623 144.4 72.3623 143.2V135.352L65.2703 121.636C65.1263 121.3 65.0543 121 65.0543 120.736C65.0543 120.376 65.1743 120.076 65.4143 119.836C65.6543 119.596 65.9663 119.476 66.3503 119.476C66.9743 119.476 67.5023 119.608 67.9343 119.872C68.3663 120.136 68.7623 120.628 69.1223 121.348L74.8463 132.652H74.9902L80.3903 121.384C80.9903 120.112 81.7223 119.476 82.5862 119.476C82.9223 119.476 83.1743 119.596 83.3423 119.836C83.5103 120.052 83.5943 120.328 83.5943 120.664C83.5943 120.952 83.5343 121.216 83.4142 121.456L76.2503 135.352V142.84C76.2503 143.68 76.0703 144.256 75.7103 144.568C75.3743 144.856 74.8223 145 74.0543 145ZM91.5818 142.66C91.5818 143.5 91.4018 144.1 91.0418 144.46C90.6818 144.82 90.1178 145 89.3498 145C88.7978 145 88.3778 144.856 88.0898 144.568C87.8258 144.28 87.6938 143.824 87.6938 143.2V121.276C87.6938 120.652 87.8258 120.196 88.0898 119.908C88.3778 119.62 88.7978 119.476 89.3498 119.476H101.59C102.334 119.476 102.874 119.572 103.21 119.764C103.57 119.956 103.75 120.304 103.75 120.808V123.58C103.75 124.204 103.618 124.66 103.354 124.948C103.114 125.236 102.73 125.38 102.202 125.38C101.506 125.38 100.978 125.2 100.618 124.84C100.282 124.48 100.114 123.88 100.114 123.04V121.384H91.5818V130.996H99.1418C99.8138 130.996 100.15 131.332 100.15 132.004C100.15 132.316 100.054 132.556 99.8618 132.724C99.6938 132.892 99.4538 132.976 99.1418 132.976H91.5818V142.66ZM127.966 132.256C127.966 134.056 127.69 135.904 127.138 137.8C126.61 139.696 125.53 141.376 123.898 142.84C122.266 144.28 119.95 145 116.95 145C113.95 145 111.634 144.28 110.002 142.84C108.394 141.376 107.326 139.696 106.798 137.8C106.27 135.904 106.006 134.056 106.006 132.256C106.006 130.456 106.27 128.608 106.798 126.712C107.326 124.816 108.394 123.136 110.002 121.672C111.634 120.208 113.95 119.476 116.95 119.476C119.95 119.476 122.266 120.208 123.898 121.672C125.53 123.136 126.61 124.828 127.138 126.748C127.69 128.644 127.966 130.48 127.966 132.256ZM123.898 132.256C123.898 129.472 123.43 126.952 122.494 124.696C121.558 122.44 119.71 121.312 116.95 121.312C114.238 121.312 112.414 122.44 111.478 124.696C110.542 126.952 110.074 129.472 110.074 132.256C110.074 135.016 110.542 137.524 111.478 139.78C112.414 142.036 114.238 143.164 116.95 143.164C119.71 143.164 121.558 142.048 122.494 139.816C123.43 137.56 123.898 135.04 123.898 132.256ZM133.467 121.276C133.467 120.628 133.587 120.172 133.827 119.908C134.067 119.62 134.475 119.476 135.051 119.476H141.855C144.615 119.476 146.823 119.992 148.479 121.024C150.135 122.032 150.963 123.832 150.963 126.424C150.963 127.6 150.651 128.68 150.027 129.664C149.427 130.648 148.635 131.452 147.651 132.076C146.691 132.7 145.695 133.096 144.663 133.264L150.639 142.876C150.855 143.188 150.963 143.5 150.963 143.812C150.963 144.172 150.807 144.46 150.495 144.676C150.183 144.892 149.727 145 149.127 145C148.647 145 148.191 144.892 147.759 144.676C147.327 144.46 146.967 144.112 146.679 143.632L140.631 133.516H137.355V142.66C137.355 143.5 137.175 144.1 136.815 144.46C136.455 144.82 135.891 145 135.123 145C134.571 145 134.151 144.856 133.863 144.568C133.599 144.28 133.467 143.824 133.467 143.2V121.276ZM137.355 131.608H141.207C142.695 131.608 144.015 131.176 145.167 130.312C146.319 129.424 146.895 128.056 146.895 126.208C146.895 124.24 146.367 122.944 145.311 122.32C144.255 121.696 142.983 121.384 141.495 121.384H137.355V131.608ZM179.496 145C178.056 145 177.336 144.076 177.336 142.228V124.804H177.084L169.668 143.668C169.308 144.556 168.804 145 168.156 145C167.484 145 166.968 144.556 166.608 143.668L159.696 124.804H159.444V142.984C159.444 143.68 159.288 144.196 158.976 144.532C158.688 144.844 158.352 145 157.968 145C157.584 145 157.26 144.868 156.996 144.604C156.732 144.34 156.6 143.932 156.6 143.38V121.384C156.6 120.784 156.828 120.316 157.284 119.98C157.74 119.644 158.28 119.476 158.904 119.476C159.432 119.476 159.948 119.62 160.452 119.908C160.98 120.172 161.364 120.604 161.604 121.204L168.516 140.32H168.696L176.22 121.384C176.46 120.712 176.844 120.232 177.372 119.944C177.924 119.632 178.512 119.476 179.136 119.476C179.76 119.476 180.216 119.632 180.504 119.944C180.816 120.256 180.972 120.736 180.972 121.384V143.2C180.972 143.872 180.864 144.34 180.648 144.604C180.432 144.868 180.048 145 179.496 145ZM191.806 137.116C191.806 139.06 192.37 140.584 193.498 141.688C194.626 142.792 196.186 143.344 198.178 143.344C200.026 143.344 201.49 142.744 202.57 141.544C203.674 140.344 204.226 138.82 204.226 136.972V121.492C204.226 120.796 204.37 120.292 204.658 119.98C204.97 119.644 205.318 119.476 205.702 119.476C206.086 119.476 206.41 119.608 206.674 119.872C206.938 120.136 207.07 120.544 207.07 121.096V135.856C207.07 137.296 206.818 138.748 206.314 140.212C205.81 141.652 204.838 142.9 203.398 143.956C201.982 145.012 200.002 145.54 197.458 145.54C193.666 145.54 191.122 144.568 189.826 142.624C188.554 140.68 187.918 138.46 187.918 135.964V121.276C187.918 120.628 188.038 120.172 188.278 119.908C188.518 119.62 188.926 119.476 189.502 119.476C190.246 119.476 190.81 119.716 191.194 120.196C191.602 120.652 191.806 121.336 191.806 122.248V137.116ZM228.158 138.268C228.686 138.268 229.07 138.412 229.31 138.7C229.574 138.988 229.706 139.444 229.706 140.068V143.848C229.706 144.256 229.526 144.556 229.166 144.748C228.806 144.916 228.266 145 227.546 145H215.666C215.114 145 214.694 144.856 214.406 144.568C214.142 144.28 214.01 143.824 214.01 143.2V121.276C214.01 120.628 214.13 120.172 214.37 119.908C214.61 119.62 215.018 119.476 215.594 119.476C216.338 119.476 216.902 119.716 217.286 120.196C217.694 120.652 217.898 121.336 217.898 122.248V143.092H226.07V140.608C226.07 139.768 226.238 139.168 226.574 138.808C226.934 138.448 227.462 138.268 228.158 138.268ZM234.685 143.092C234.397 143.86 234.061 144.376 233.677 144.64C233.317 144.88 232.921 145 232.489 145C232.153 145 231.901 144.916 231.733 144.748C231.589 144.556 231.517 144.316 231.517 144.028C231.517 143.74 231.577 143.44 231.697 143.128L240.157 120.34C240.253 120.076 240.481 119.872 240.841 119.728C241.225 119.56 241.657 119.476 242.137 119.476C242.665 119.476 243.133 119.56 243.541 119.728C243.973 119.896 244.237 120.136 244.333 120.448L252.577 143.272C252.625 143.512 252.649 143.692 252.649 143.812C252.649 144.148 252.529 144.436 252.289 144.676C252.073 144.892 251.725 145 251.245 145C250.741 145 250.225 144.868 249.697 144.604C249.193 144.34 248.809 143.836 248.545 143.092L246.637 138.16H236.521L234.685 143.092ZM241.741 123.724H241.525L237.097 136.288H246.097L241.741 123.724ZM256.795 121.276C256.795 120.628 256.915 120.172 257.155 119.908C257.395 119.62 257.803 119.476 258.379 119.476H265.183C267.943 119.476 270.151 119.992 271.807 121.024C273.463 122.032 274.291 123.832 274.291 126.424C274.291 127.6 273.979 128.68 273.355 129.664C272.755 130.648 271.963 131.452 270.979 132.076C270.019 132.7 269.023 133.096 267.991 133.264L273.967 142.876C274.183 143.188 274.291 143.5 274.291 143.812C274.291 144.172 274.135 144.46 273.823 144.676C273.511 144.892 273.055 145 272.455 145C271.975 145 271.519 144.892 271.087 144.676C270.655 144.46 270.295 144.112 270.007 143.632L263.959 133.516H260.683V142.66C260.683 143.5 260.503 144.1 260.143 144.46C259.783 144.82 259.219 145 258.451 145C257.899 145 257.479 144.856 257.191 144.568C256.927 144.28 256.795 143.824 256.795 143.2V121.276ZM260.683 131.608H264.535C266.023 131.608 267.343 131.176 268.495 130.312C269.647 129.424 270.223 128.056 270.223 126.208C270.223 124.24 269.695 122.944 268.639 122.32C267.583 121.696 266.311 121.384 264.823 121.384H260.683V131.608Z" fill="#6D7A80"/>
<line x1="180" y1="23" x2="180" y2="110" stroke="#6D7A80" stroke-width="2"/>
<line x1="179.5" y1="157" x2="179.5" y2="244" stroke="#6D7A80"/>
<line x1="180" y1="157" x2="180" y2="244" stroke="#6D7A80" stroke-width="2"/>
<line x1="309" y1="65.9944" x2="310" y2="243.994" stroke="#6D7A80" stroke-width="2"/>
<path d="M262.198 65.2535L262.581 25.1544L307.387 65.0138L262.198 65.2535Z" stroke="#6D7A80" stroke-width="2"/>
</svg>
