<svg width="270" height="316" viewBox="0 0 270 316" fill="none" xmlns="http://www.w3.org/2000/svg">
<path d="M15.456 236.072V161.144L5.824 160.248V156.104H62.496L64.064 171.672H59.472L56.896 161.144L23.408 160.472V193.736L45.808 193.288L47.152 184.552H51.52V207.736H47.152L45.808 198.552L23.408 198.216V236.408L59.472 235.512L64.4 222.744L68.432 223.752L65.968 241H5.6V237.304L15.456 236.072ZM88.2061 235.96V161.144L78.5741 160.248V156.104H136.478L137.71 171.672L133.454 171.784L130.878 161.368L96.2701 160.696V195.416L121.582 194.968L123.374 186.456H127.63V209.416H122.926L121.582 200.344L96.2701 199.896V236.072L113.182 236.968V241H77.7901V237.304L88.2061 235.96Z" fill="#6C787F"/>
<path d="M72 155V51.4998H149.5V2.99982H267V313.5H72V242" stroke="#6C787F" stroke-width="5"/>
<path d="M71 51L150 3" stroke="#6C787F" stroke-width="5"/>
</svg>
